<?xml version="1.0" encoding="UTF-8"?>
<!DOCTYPE svg PUBLIC "-//W3C//DTD SVG 1.1//EN" "http://www.w3.org/Graphics/SVG/1.1/DTD/svg11.dtd">
<!-- Creator: CorelDRAW 2020 (64-Bit Versión de evaluación) -->
<svg xmlns="http://www.w3.org/2000/svg" xml:space="preserve" width="66mm" height="66mm" version="1.1" style="shape-rendering:geometricPrecision; text-rendering:geometricPrecision; image-rendering:optimizeQuality; fill-rule:evenodd; clip-rule:evenodd"
viewBox="0 0 6600 6600"
 xmlns:xlink="http://www.w3.org/1999/xlink"
 xmlns:xodm="http://www.corel.com/coreldraw/odm/2003">
 <defs>
  <style type="text/css">
   <![CDATA[
    .fil0 {fill:white}
   ]]>
  </style>
 </defs>
 <g id="Capa_x0020_1">
  <metadata id="CorelCorpID_0Corel-Layer"/>
  <path class="fil0" d="M3298.02 281.87c1667.92,0 3020.1,1352.18 3020.1,3020.1 0,1667.97 -1352.18,3020.15 -3020.1,3020.15 -1667.97,0 -3020.15,-1352.18 -3020.15,-3020.15 0,-1667.92 1352.18,-3020.1 3020.15,-3020.1zm-1287.12 3842.88c-521.71,0 -944.59,-411.27 -944.59,-918.63 0,-502.63 415.01,-910.82 929.97,-918.45 24.01,-738.1 617.21,-1328.92 1345.65,-1328.92 730.23,0 1324.5,593.51 1345.97,1333.94 473.37,47.87 841.8,422.25 841.8,877.15 0,478.58 -407.94,868.13 -916.81,881.84l-95.25 1331.32c-10.3,143.89 -113.34,262.28 -251.9,262.28l-1893.63 0c-138.56,0 -241.6,-118.42 -251.89,-262.28l-90.05 -1258.47 -19.27 0.22zm1777.82 -40.99l85.62 0c19.99,0 36.35,16.35 36.35,36.34l0 1339c0,20 -16.36,36.35 -36.35,36.35l-85.62 0c-19.99,0 -36.34,-16.35 -36.34,-36.35l0 -1339c0,-19.99 16.35,-36.34 36.34,-36.34zm343.86 0l85.61 0c20,0 36.35,16.35 36.35,36.34l0 1339c0,20 -16.35,36.35 -36.35,36.35l-85.61 0c-20,0 -36.35,-16.35 -36.35,-36.35l0 -1339c0,-19.99 16.35,-36.34 36.35,-36.34zm-687.71 0l85.62 0c19.99,0 36.34,16.35 36.34,36.34l0 1339c0,20 -16.35,36.35 -36.34,36.35l-85.62 0c-19.99,0 -36.34,-16.35 -36.34,-36.35l0 -1339c0,-19.99 16.35,-36.34 36.34,-36.34zm-687.7 0l85.62 0c19.99,0 36.34,16.35 36.34,36.34l0 1339c0,20 -16.35,36.35 -36.34,36.35l-85.62 0c-19.99,0 -36.34,-16.35 -36.34,-36.35l0 -1339c0,-19.99 16.35,-36.34 36.34,-36.34zm343.85 0l85.62 0c19.99,0 36.34,16.35 36.34,36.34l0 1339c0,20 -16.35,36.35 -36.34,36.35l-85.62 0c-19.99,0 -36.34,-16.35 -36.34,-36.35l0 -1339c0,-19.99 16.35,-36.34 36.34,-36.34zm-687.7 0l85.62 0c19.99,0 36.34,16.35 36.34,36.34l0 1339c0,20 -16.35,36.35 -36.34,36.35l-85.62 0c-19.99,0 -36.35,-16.35 -36.35,-36.35l0 -1339c0,-19.99 16.36,-36.34 36.35,-36.34z"/>
  <path class="fil0" d="M3298 15.07c1815.31,0 3286.94,1471.62 3286.94,3286.93 0,1815.3 -1471.63,3286.93 -3286.94,3286.93 -1815.32,0 -3286.95,-1471.63 -3286.95,-3286.93 0,-1815.31 1471.63,-3286.93 3286.95,-3286.93zm0 167.19c1722.96,0 3119.75,1396.78 3119.75,3119.74 0,1722.96 -1396.79,3119.74 -3119.75,3119.74 -1722.97,0 -3119.76,-1396.78 -3119.76,-3119.74 0,-1722.96 1396.79,-3119.74 3119.76,-3119.74z"/>
 </g>
</svg>
